<svg width="720" height="140" viewBox="0 0 720 140" fill="none" xmlns="http://www.w3.org/2000/svg">
  <g transform="translate(12 18)">
    <path d="M64 26C43.8 26 28.4 39.6 24.9 57.2C35.8 52.2 49 49.6 64 49.6C79 49.6 92.2 52.2 103.1 57.2C99.6 39.6 84.2 26 64 26Z" fill="#5A6550"/>
    <rect x="55.2" y="50.8" width="17.6" height="30.4" rx="8.8" fill="#73806B"/>
    <path d="M39.8 72.8C46.5 79.5 54.1 81.8 64 81.8C73.9 81.8 81.5 79.5 88.2 72.8" stroke="#73806B" stroke-width="4.2" stroke-linecap="round"/>
    <circle cx="34.5" cy="24.8" r="4.8" fill="#73806B"/>
    <circle cx="92.7" cy="26.2" r="4.8" fill="#73806B"/>
    <circle cx="102.2" cy="68.8" r="4.1" fill="#73806B" opacity="0.85"/>
    <path d="M34.5 24.8C46.1 23.1 56.6 25.2 64 32.8" stroke="#73806B" stroke-width="2.9" stroke-linecap="round"/>
    <path d="M64 32.8C71.3 25.5 81.2 23.8 92.7 26.2" stroke="#73806B" stroke-width="2.9" stroke-linecap="round"/>
    <path d="M92.7 26.2C100.2 34.3 103.8 45.5 102.2 68.8" stroke="#73806B" stroke-width="2.9" stroke-linecap="round" stroke-dasharray="2 7"/>
  </g>
  <g transform="translate(150 20)">
    <text x="0" y="54" font-family="Arial, Helvetica, sans-serif" font-size="72" font-weight="700" letter-spacing="-0.04em" fill="#20251F">Oye</text>
  </g>
</svg>
